<svg xmlns="http://www.w3.org/2000/svg" viewBox="0 0 100 100">
  <g fill="#ff6b6b">
    <path d="M50 8c4 8 4 14 0 20-4-6-4-12 0-20Z"/>
    <path d="M50 8c4 8 4 14 0 20-4-6-4-12 0-20Z" transform="rotate(72 50 50)"/>
    <path d="M50 8c4 8 4 14 0 20-4-6-4-12 0-20Z" transform="rotate(144 50 50)"/>
    <path d="M50 8c4 8 4 14 0 20-4-6-4-12 0-20Z" transform="rotate(216 50 50)"/>
    <path d="M50 8c4 8 4 14 0 20-4-6-4-12 0-20Z" transform="rotate(288 50 50)"/>
  </g>
  <circle cx="50" cy="50" r="7" fill="#574b90"/>
</svg>
